<svg width="716.211" height="70.022" viewBox="0 0 716.211 70.022" xmlns="http://www.w3.org/2000/svg"><g id="svgGroup" stroke-linecap="round" fill-rule="evenodd" font-size="9pt" stroke="#000" stroke-width="0.25mm" fill="#000" style="stroke:#000;stroke-width:0.25mm;fill:#000"><path d="M 315.039 15.725 L 315.039 70.022 L 305.029 70.022 L 305.029 0.003 L 315.039 0.003 L 357.129 54.299 L 357.129 0.003 L 367.139 0.003 L 367.139 70.022 L 357.129 70.022 L 315.039 15.725 Z M 140.039 70.022 L 140.039 0.003 L 191.064 0.003 L 191.064 10.012 L 150.049 10.012 L 150.049 30.032 L 185.059 30.032 L 185.059 40.042 L 150.049 40.042 L 150.049 60.012 L 191.064 60.012 L 191.064 70.022 L 140.039 70.022 Z M 590.186 70.022 L 590.186 0.003 L 641.211 0.003 L 641.211 10.012 L 600.195 10.012 L 600.195 30.032 L 635.205 30.032 L 635.205 40.042 L 600.195 40.042 L 600.195 60.012 L 641.211 60.012 L 641.211 70.022 L 590.186 70.022 Z M 238.086 70.022 L 227.051 70.022 L 200.049 0.003 L 210.791 0.003 L 232.568 57.62 L 254.395 0.003 L 265.088 0.003 L 238.086 70.022 Z M 447.119 70.022 L 436.084 70.022 L 409.082 0.003 L 419.824 0.003 L 441.602 57.62 L 463.428 0.003 L 474.121 0.003 L 447.119 70.022 Z M 123.34 17.044 L 123.34 25.003 A 25.461 25.461 0 0 1 122.653 31.177 Q 120.624 39.278 112.598 41.335 A 20.345 20.345 0 0 1 110.84 41.702 L 124.023 70.022 L 112.939 70.022 L 99.951 42.044 L 78.027 42.044 L 78.027 70.022 L 68.018 70.022 L 68.018 0.003 L 106.348 0.003 A 24.396 24.396 0 0 1 113.072 0.847 Q 120.612 3.013 122.615 10.733 A 25.175 25.175 0 0 1 123.34 17.044 Z M 0 10.012 L 0 0.003 L 56.006 0.003 L 56.006 10.012 L 33.008 10.012 L 33.008 70.022 L 22.998 70.022 L 22.998 10.012 L 0 10.012 Z M 716.211 10.012 L 716.211 60.012 A 9.788 9.788 0 0 1 715.43 63.894 A 10.055 10.055 0 0 1 713.281 67.092 A 10.055 10.055 0 0 1 710.083 69.241 Q 708.252 70.022 706.201 70.022 L 666.211 70.022 A 9.788 9.788 0 0 1 662.329 69.241 A 10.055 10.055 0 0 1 659.131 67.092 A 10.055 10.055 0 0 1 656.982 63.894 A 9.788 9.788 0 0 1 656.201 60.012 L 656.201 10.012 A 9.788 9.788 0 0 1 656.982 6.13 A 9.771 9.771 0 0 1 659.131 2.957 Q 660.498 1.614 662.329 0.808 A 9.533 9.533 0 0 1 666.211 0.003 L 706.201 0.003 A 9.533 9.533 0 0 1 710.083 0.808 A 10.622 10.622 0 0 1 713.281 2.957 Q 714.648 4.299 715.43 6.13 A 9.788 9.788 0 0 1 716.211 10.012 Z M 549.658 70.022 L 514.063 70.022 L 514.063 0.003 L 549.658 0.003 A 31.394 31.394 0 0 1 555.314 0.492 A 25.048 25.048 0 0 1 559.79 1.736 A 22.313 22.313 0 0 1 565.933 5.249 A 20.717 20.717 0 0 1 567.505 6.668 A 21.48 21.48 0 0 1 572.069 13.498 A 25.011 25.011 0 0 1 572.437 14.407 A 26.308 26.308 0 0 1 573.983 20.972 A 32.759 32.759 0 0 1 574.17 24.514 L 574.17 45.51 A 30.924 30.924 0 0 1 573.621 51.448 A 25.245 25.245 0 0 1 572.437 55.618 A 22.397 22.397 0 0 1 569.101 61.563 A 20.575 20.575 0 0 1 567.505 63.357 Q 564.307 66.555 559.79 68.289 A 25.912 25.912 0 0 1 553.552 69.798 A 32.859 32.859 0 0 1 549.658 70.022 Z M 706.201 10.012 L 666.211 10.012 L 666.211 60.012 L 706.201 60.012 L 706.201 10.012 Z M 524.072 60.012 L 549.658 60.012 A 20.787 20.787 0 0 0 553.893 59.607 Q 557.874 58.779 560.4 56.253 Q 564.16 52.493 564.16 45.51 L 564.16 24.514 A 20.476 20.476 0 0 0 563.916 21.279 A 15.579 15.579 0 0 0 563.184 18.411 A 12.69 12.69 0 0 0 561.313 14.966 A 11.653 11.653 0 0 0 560.327 13.845 A 12.142 12.142 0 0 0 556.299 11.197 A 14.192 14.192 0 0 0 555.762 10.989 A 15.883 15.883 0 0 0 552.412 10.186 A 20.963 20.963 0 0 0 549.658 10.012 L 524.072 10.012 L 524.072 60.012 Z M 277.051 0.003 L 287.061 0.003 L 287.061 70.022 L 277.051 70.022 L 277.051 0.003 Z M 486.084 0.003 L 496.094 0.003 L 496.094 70.022 L 486.084 70.022 L 486.084 0.003 Z M 78.027 10.012 L 78.027 32.034 L 105.811 32.034 A 14.395 14.395 0 0 0 107.859 31.899 Q 110.258 31.553 111.526 30.322 A 4.378 4.378 0 0 0 111.572 30.276 A 5.159 5.159 0 0 0 112.71 28.477 Q 113.321 26.916 113.33 24.586 A 18.101 18.101 0 0 0 113.33 24.514 L 113.33 17.532 A 14.395 14.395 0 0 0 113.195 15.484 Q 112.849 13.085 111.618 11.816 A 4.378 4.378 0 0 0 111.572 11.77 A 5.159 5.159 0 0 0 109.773 10.632 Q 108.212 10.022 105.882 10.012 A 18.101 18.101 0 0 0 105.811 10.012 L 78.027 10.012 Z" vector-effect="non-scaling-stroke"/></g></svg>